<?xml version="1.0" encoding="UTF-8"?>
<svg version="1.1" xmlns="http://www.w3.org/2000/svg" width="32" height="32">
<path d="M0 0 C10.56 0 21.12 0 32 0 C32 10.56 32 21.12 32 32 C21.44 32 10.88 32 0 32 C0 21.44 0 10.88 0 0 Z " fill="#D3CDCD" transform="translate(0,0)"/>
<path d="M0 0 C6.6 0 13.2 0 20 0 C20 9.24 20 18.48 20 28 C13.73 28 7.46 28 1 28 C1.66 27.67 2.32 27.34 3 27 C3.33 26.34 3.66 25.68 4 25 C4.66 24.67 5.32 24.34 6 24 C7.26145768 21.63813861 7.26145768 21.63813861 8 19 C7.67 18.01 7.34 17.02 7 16 C8.65 15.67 10.3 15.34 12 15 C11.67 14.01 11.34 13.02 11 12 C10.34 11.67 9.68 11.34 9 11 C9.33 10.01 9.66 9.02 10 8 C10.66 8 11.32 8 12 8 C12 7.34 12 6.68 12 6 C11.34 6 10.68 6 10 6 C10 5.34 10 4.68 10 4 C9.01 4 8.02 4 7 4 C7 3.34 7 2.68 7 2 C6.01 2 5.02 2 4 2 C4 2.99 4 3.98 4 5 C4.66 5.33 5.32 5.66 6 6 C3.625 6.625 3.625 6.625 1 7 C0.34 6.34 -0.32 5.68 -1 5 C-0.67 3.35 -0.34 1.7 0 0 Z " fill="#F5F0F2" transform="translate(11,0)"/>
<path d="M0 0 C0.99 0 1.98 0 3 0 C3 0.66 3 1.32 3 2 C3.99 2 4.98 2 6 2 C6 2.66 6 3.32 6 4 C6.66 4 7.32 4 8 4 C8 6 8 6 6.5 7.625 C6.005 8.07875 5.51 8.5325 5 9 C5.99 9.33 6.98 9.66 8 10 C8 10.99 8 11.98 8 13 C6.35 13.33 4.7 13.66 3 14 C3.391875 14.721875 3.78375 15.44375 4.1875 16.1875 C5 19 5 19 3.625 21.8125 C3.08875 22.534375 2.5525 23.25625 2 24 C-1 23 -1 23 -2.75 20.625 C-4 18 -4 18 -3 15 C-2.34 14.34 -1.68 13.68 -1 13 C-1.680625 12.4225 -2.36125 11.845 -3.0625 11.25 C-3.701875 10.5075 -4.34125 9.765 -5 9 C-4.75 6.75 -4.75 6.75 -4 5 C-2.35 4.67 -0.7 4.34 1 4 C0.67 2.68 0.34 1.36 0 0 Z " fill="#AA92A1" transform="translate(15,2)"/>
<path d="M0 0 C0 0.99 0 1.98 0 3 C-7.59 3 -15.18 3 -23 3 C-23 2.34 -23 1.68 -23 1 C-7.25512528 -0.14806378 -7.25512528 -0.14806378 0 0 Z " fill="#C9D6E4" transform="translate(31,29)"/>
<path d="M0 0 C2.31 0.33 4.62 0.66 7 1 C7 4.76687864 6.76462683 5.91190305 5 9 C2 8 2 8 0.25 5.625 C-1 3 -1 3 0 0 Z " fill="#ABA0AF" transform="translate(12,17)"/>
<path d="M0 0 C3.59391114 1.33488128 6.75490696 2.96022723 10 5 C9.34 5.66 8.68 6.32 8 7 C5.1617638 6.78167414 3.46577913 6.35334968 1.1875 4.625 C0 3 0 3 0 0 Z " fill="#EAEBF0" transform="translate(12,8)"/>
<path d="M0 0 C0.99 0.33 1.98 0.66 3 1 C3 1.99 3 2.98 3 4 C2.01 4.33 1.02 4.66 0 5 C-0.66 3.68 -1.32 2.36 -2 1 C-1.34 0.67 -0.68 0.34 0 0 Z " fill="#ECE4E9" transform="translate(15,17)"/>
</svg>
